<svg xmlns="http://www.w3.org/2000/svg" xmlns:xlink="http://www.w3.org/1999/xlink" width="687" height="237" contentStyleType="text/css" preserveAspectRatio="none" style="width:687px;height:237px;background:#fff" version="1.1" viewBox="0 0 687 237" zoomAndPan="magnify"><g><line style="stroke:#181818;stroke-width:.5;stroke-dasharray:5,5" x1="39" x2="39" y1="36.297" y2="201.961"/><line style="stroke:#181818;stroke-width:.5;stroke-dasharray:5,5" x1="160" x2="160" y1="36.297" y2="201.961"/><line style="stroke:#181818;stroke-width:.5;stroke-dasharray:5,5" x1="261.5" x2="261.5" y1="36.297" y2="201.961"/><line style="stroke:#181818;stroke-width:.5;stroke-dasharray:5,5" x1="402" x2="402" y1="36.297" y2="201.961"/><line style="stroke:#181818;stroke-width:.5;stroke-dasharray:5,5" x1="522.5" x2="522.5" y1="36.297" y2="201.961"/><line style="stroke:#181818;stroke-width:.5;stroke-dasharray:5,5" x1="643.5" x2="643.5" y1="36.297" y2="201.961"/><rect width="68" height="30.297" x="5" y="5" fill="#E2E2F0" rx="2.5" ry="2.5" style="stroke:#181818;stroke-width:.5"/><text x="12" y="24.995" fill="#000" font-family="sans-serif" font-size="14" lengthAdjust="spacing" textLength="54">Michael</text><rect width="68" height="30.297" x="5" y="200.961" fill="#E2E2F0" rx="2.5" ry="2.5" style="stroke:#181818;stroke-width:.5"/><text x="12" y="220.956" fill="#000" font-family="sans-serif" font-size="14" lengthAdjust="spacing" textLength="54">Michael</text><rect width="52" height="30.297" x="134" y="5" fill="#E2E2F0" rx="2.5" ry="2.5" style="stroke:#181818;stroke-width:.5"/><text x="141" y="24.995" fill="#000" font-family="sans-serif" font-size="14" lengthAdjust="spacing" textLength="38">Maria</text><rect width="52" height="30.297" x="134" y="200.961" fill="#E2E2F0" rx="2.5" ry="2.5" style="stroke:#181818;stroke-width:.5"/><text x="141" y="220.956" fill="#000" font-family="sans-serif" font-size="14" lengthAdjust="spacing" textLength="38">Maria</text><rect width="57" height="30.297" x="233.5" y="5" fill="#E2E2F0" rx="2.5" ry="2.5" style="stroke:#181818;stroke-width:.5"/><text x="240.5" y="24.995" fill="#000" font-family="sans-serif" font-size="14" lengthAdjust="spacing" textLength="43">Marco</text><rect width="57" height="30.297" x="233.5" y="200.961" fill="#E2E2F0" rx="2.5" ry="2.5" style="stroke:#181818;stroke-width:.5"/><text x="240.5" y="220.956" fill="#000" font-family="sans-serif" font-size="14" lengthAdjust="spacing" textLength="43">Marco</text><rect width="70" height="30.297" x="367" y="5" fill="#E2E2F0" rx="2.5" ry="2.5" style="stroke:#181818;stroke-width:.5"/><text x="374" y="24.995" fill="#000" font-family="sans-serif" font-size="14" lengthAdjust="spacing" textLength="56">Miranda</text><rect width="70" height="30.297" x="367" y="200.961" fill="#E2E2F0" rx="2.5" ry="2.5" style="stroke:#181818;stroke-width:.5"/><text x="374" y="220.956" fill="#000" font-family="sans-serif" font-size="14" lengthAdjust="spacing" textLength="56">Miranda</text><rect width="53" height="30.297" x="496.5" y="5" fill="#E2E2F0" rx="2.5" ry="2.5" style="stroke:#181818;stroke-width:.5"/><text x="503.5" y="24.995" fill="#000" font-family="sans-serif" font-size="14" lengthAdjust="spacing" textLength="39">Mario</text><rect width="53" height="30.297" x="496.5" y="200.961" fill="#E2E2F0" rx="2.5" ry="2.5" style="stroke:#181818;stroke-width:.5"/><text x="503.5" y="220.956" fill="#000" font-family="sans-serif" font-size="14" lengthAdjust="spacing" textLength="39">Mario</text><rect width="75" height="30.297" x="606.5" y="5" fill="#E2E2F0" rx="2.5" ry="2.5" style="stroke:#181818;stroke-width:.5"/><text x="613.5" y="24.995" fill="#000" font-family="sans-serif" font-size="14" lengthAdjust="spacing" textLength="61">Mathilda</text><rect width="75" height="30.297" x="606.5" y="200.961" fill="#E2E2F0" rx="2.5" ry="2.5" style="stroke:#181818;stroke-width:.5"/><text x="613.5" y="220.956" fill="#000" font-family="sans-serif" font-size="14" lengthAdjust="spacing" textLength="61">Mathilda</text><polygon fill="#181818" points="148 63.43 158 67.43 148 71.43 152 67.43" style="stroke:#181818;stroke-width:1"/><line style="stroke:#181818;stroke-width:1" x1="39" x2="154" y1="67.43" y2="67.43"/><text x="46" y="62.364" fill="#000" font-family="sans-serif" font-size="13" lengthAdjust="spacing" textLength="97">Message(Hello)</text><polygon fill="#181818" points="250 92.563 260 96.563 250 100.563 254 96.563" style="stroke:#181818;stroke-width:1"/><line style="stroke:#181818;stroke-width:1" x1="160" x2="256" y1="96.563" y2="96.563"/><text x="167" y="91.497" fill="#000" font-family="sans-serif" font-size="13" lengthAdjust="spacing" textLength="78">Message(Hi)</text><polygon fill="#181818" points="390 121.695 400 125.695 390 129.695 394 125.695" style="stroke:#181818;stroke-width:1"/><line style="stroke:#181818;stroke-width:1" x1="262" x2="396" y1="125.695" y2="125.695"/><text x="269" y="120.629" fill="#000" font-family="sans-serif" font-size="13" lengthAdjust="spacing" textLength="116">Message(Hi there)</text><polygon fill="#181818" points="511 150.828 521 154.828 511 158.828 515 154.828" style="stroke:#181818;stroke-width:1"/><line style="stroke:#181818;stroke-width:1" x1="402" x2="517" y1="154.828" y2="154.828"/><text x="409" y="149.762" fill="#000" font-family="sans-serif" font-size="13" lengthAdjust="spacing" textLength="97">Message(Hallo)</text><polygon fill="#181818" points="632 179.961 642 183.961 632 187.961 636 183.961" style="stroke:#181818;stroke-width:1"/><line style="stroke:#181818;stroke-width:1" x1="523" x2="638" y1="183.961" y2="183.961"/><text x="530" y="178.895" fill="#000" font-family="sans-serif" font-size="13" lengthAdjust="spacing" textLength="97">Message(Hallo)</text></g></svg>