<svg xmlns="http://www.w3.org/2000/svg" xmlns:xlink="http://www.w3.org/1999/xlink" width="233" height="152" contentStyleType="text/css" preserveAspectRatio="none" style="width:233px;height:152px;background:#fff" version="1.1" viewBox="0 0 233 152" zoomAndPan="magnify"><g><line style="stroke:#181818;stroke-width:.5;stroke-dasharray:5,5" x1="52" x2="52" y1="53.297" y2="102.43"/><line style="stroke:#181818;stroke-width:.5;stroke-dasharray:5,5" x1="191.5" x2="191.5" y1="53.297" y2="102.43"/><rect width="94" height="30.297" x="5" y="22" fill="#E2E2F0" rx="2.5" ry="2.5" style="stroke:#181818;stroke-width:.5"/><text x="12" y="41.995" fill="#000" font-family="sans-serif" font-size="14" lengthAdjust="spacing" textLength="80">Participant</text><rect width="94" height="30.297" x="5" y="101.43" fill="#E2E2F0" rx="2.5" ry="2.5" style="stroke:#181818;stroke-width:.5"/><text x="12" y="121.425" fill="#000" font-family="sans-serif" font-size="14" lengthAdjust="spacing" textLength="80">Participant</text><text x="151.5" y="49.995" fill="#000" font-family="sans-serif" font-size="14" lengthAdjust="spacing" textLength="75">Reception</text><path fill="none" d="M171.5,9 L171.5,33 M171.5,21 L188.5,21" style="stroke:#181818;stroke-width:.5"/><ellipse cx="200.5" cy="21" fill="#E2E2F0" rx="12" ry="12" style="stroke:#181818;stroke-width:.5"/><text x="151.5" y="114.425" fill="#000" font-family="sans-serif" font-size="14" lengthAdjust="spacing" textLength="75">Reception</text><path fill="none" d="M171.5,121.7266 L171.5,145.7266 M171.5,133.7266 L188.5,133.7266" style="stroke:#181818;stroke-width:.5"/><ellipse cx="200.5" cy="133.727" fill="#E2E2F0" rx="12" ry="12" style="stroke:#181818;stroke-width:.5"/><polygon fill="#181818" points="180 80.43 190 84.43 180 88.43 184 84.43" style="stroke:#181818;stroke-width:1"/><line style="stroke:#181818;stroke-width:1" x1="52" x2="186" y1="84.43" y2="84.43"/><text x="59" y="79.364" fill="#000" font-family="sans-serif" font-size="13" lengthAdjust="spacing" textLength="116">Message(Hi there)</text></g></svg>