<svg xmlns="http://www.w3.org/2000/svg" xmlns:xlink="http://www.w3.org/1999/xlink" contentStyleType="text/css" style="width:490px;height:890px;background:#fff" version="1.1" viewBox="0 0 490 890" zoomAndPan="magnify"><g><g id="cluster_Main"><rect height="220.313" rx="3.906" ry="3.906" style="stroke:#181818;stroke-width:1.5625;fill:none" width="215.625" x="18.75" y="89.063"/><text x="23.438" y="109.592" fill="#000" font-family="sans-serif" font-size="18.75" font-weight="bold" lengthAdjust="spacing" textLength="53.125">Main</text></g><g id="cluster_Base"><rect height="200" rx="3.906" ry="3.906" style="stroke:#181818;stroke-width:1.5625;fill:none" width="401.563" x="10.938" y="360.938"/><text x="15.625" y="381.467" fill="#000" font-family="sans-serif" font-size="18.75" font-weight="bold" lengthAdjust="spacing" textLength="54.688">Base</text></g><g id="cluster_More"><rect height="115.625" rx="3.906" ry="3.906" style="stroke:#181818;stroke-width:1.5625;fill:none" width="301.563" x="179.688" y="598.438"/><text x="184.375" y="618.967" fill="#000" font-family="sans-serif" font-size="18.75" font-weight="bold" lengthAdjust="spacing" textLength="57.813">More</text></g><g id="cluster_EvenMore"><rect height="115.625" rx="3.906" ry="3.906" style="stroke:#181818;stroke-width:1.5625;fill:none" width="296.875" x="179.688" y="765.625"/><text x="184.375" y="786.154" fill="#000" font-family="sans-serif" font-size="18.75" font-weight="bold" lengthAdjust="spacing" textLength="110.938">EvenMore</text></g><g id="elem_main.view"><ellipse cx="126.86" cy="159.435" fill="#F1F1F1" rx="83.11" ry="20.372" style="stroke:#181818;stroke-width:.625"/><text x="76.079" y="163.84" fill="#000" font-family="sans-serif" font-size="18.75" lengthAdjust="spacing" textLength="92.188">main.view</text></g><g id="elem_singleton"><ellipse cx="123.768" cy="263.98" fill="#F1F1F1" rx="79.237" ry="20.23" style="stroke:#181818;stroke-width:.625"/><text x="76.112" y="268.385" fill="#000" font-family="sans-serif" font-size="18.75" lengthAdjust="spacing" textLength="85.938">singleton</text></g><g id="elem_base.component"><ellipse cx="210.815" cy="509.819" fill="#F1F1F1" rx="108.471" ry="25.444" style="stroke:#181818;stroke-width:.625"/><text x="131.908" y="513.185" fill="#000" font-family="sans-serif" font-size="18.75" lengthAdjust="spacing" textLength="157.813">base.component</text></g><g id="elem_component"><ellipse cx="300.347" cy="432.257" fill="#F1F1F1" rx="87.847" ry="21.319" style="stroke:#181818;stroke-width:.625"/><text x="243.509" y="436.474" fill="#000" font-family="sans-serif" font-size="18.75" lengthAdjust="spacing" textLength="106.25">component</text></g><g id="elem_model"><ellipse cx="96.649" cy="431.84" fill="#F1F1F1" rx="59.93" ry="20.121" style="stroke:#181818;stroke-width:.625"/><text x="66.962" y="435.206" fill="#000" font-family="sans-serif" font-size="18.75" lengthAdjust="spacing" textLength="59.375">model</text></g><g id="elem_more"><ellipse cx="403.301" cy="668.558" fill="#F1F1F1" rx="53.301" ry="20.121" style="stroke:#181818;stroke-width:.625"/><text x="378.301" y="671.924" fill="#000" font-family="sans-serif" font-size="18.75" lengthAdjust="spacing" textLength="50">more</text></g><g id="elem_less"><ellipse cx="250.255" cy="668.558" fill="#F1F1F1" rx="45.567" ry="20.121" style="stroke:#181818;stroke-width:.625"/><text x="230.723" y="671.924" fill="#000" font-family="sans-serif" font-size="18.75" lengthAdjust="spacing" textLength="39.063">less</text></g><g id="elem_even"><ellipse cx="400.31" cy="835.746" fill="#F1F1F1" rx="51.091" ry="20.121" style="stroke:#181818;stroke-width:.625"/><text x="376.873" y="839.112" fill="#000" font-family="sans-serif" font-size="18.75" lengthAdjust="spacing" textLength="46.875">even</text></g><g id="elem_why"><ellipse cx="249.931" cy="835.746" fill="#F1F1F1" rx="44.462" ry="20.121" style="stroke:#181818;stroke-width:.625"/><text x="231.181" y="839.112" fill="#000" font-family="sans-serif" font-size="18.75" lengthAdjust="spacing" textLength="37.5">why</text></g><g id="elem_main_ts"><rect width="114.063" height="53.076" x="69.531" y="10.938" fill="#F1F1F1" rx="3.906" ry="3.906" style="stroke:#181818;stroke-width:1.5625"/><text x="85.156" y="43.967" fill="#000" font-family="sans-serif" font-size="18.75" font-weight="bold" lengthAdjust="spacing" textLength="82.813">main.ts</text></g><g id="link_component_base.component"><path id="component-to-base.component" fill="none" d="M277.525,452.5188 C267.7953,460.7125 256.1875,470.4891 245.4078,479.5656" style="stroke:#181818;stroke-width:1.09375;stroke-dasharray:7,7"/><polygon fill="#181818" points="238.827 485.108 253.609 480.831 244.803 480.076 245.558 471.269 238.827 485.108" style="stroke:#181818;stroke-width:1.09375"/></g><g id="link_main_ts_main.view"><path id="main_ts-to-main.view" fill="none" d="M126.5625,64.2469 C126.5625,83.7859 126.5625,110.8187 126.5625,130.8063" style="stroke:#181818;stroke-width:3.125"/><polygon fill="#181818" points="126.563 138.898 132.813 124.836 126.563 131.086 120.313 124.836 126.563 138.898" style="stroke:#181818;stroke-width:3.125"/></g><g id="link_main.view_component"><path id="main.view-to-component" fill="none" d="M156.4234,178.6328 C179.2375,193.4875 210.0141,216.6063 229.6875,243.75 C265.9359,293.7609 285.8016,364.6938 294.5188,403.1391" style="stroke:#181818;stroke-width:1.09375"/><polygon fill="#181818" points="296.212 410.83 299.295 395.753 294.534 403.2 287.087 398.439 296.212 410.83" style="stroke:#181818;stroke-width:1.09375"/></g><g id="link_main.view_singleton"><path id="main.view-to-singleton" fill="none" d="M125.9747,180.0406 C125.4945,195.6453 124.81,217.8938 124.273,235.3484" style="stroke:#181818;stroke-width:1.09375;stroke-dasharray:7,7"/><polygon fill="#181818" points="124.023 243.483 130.704 229.62 124.264 235.674 118.21 229.234 124.023 243.483" style="stroke:#181818;stroke-width:1.09375"/></g><g id="link_singleton_model"><path id="singleton-to-model" fill="none" d="M120.3905,284.5344 C115.692,313.6922 106.658,369.7563 101.258,403.2687" style="stroke:#181818;stroke-width:1.09375"/><polygon fill="#181818" points="99.968 411.272 108.376 398.383 101.212 403.559 96.036 396.394 99.968 411.272" style="stroke:#181818;stroke-width:1.09375"/></g><g id="link_component_more"><path id="component-to-more" fill="none" d="M321.45,452.6641 C330.3656,461.55 340.175,472.7266 346.875,484.375 C376.2734,535.4891 391.9516,603.65 398.8,640.6172" style="stroke:#181818;stroke-width:1.09375"/><polygon fill="#181818" points="400.203 648.448 403.872 633.503 398.824 640.759 391.568 635.711 400.203 648.448" style="stroke:#181818;stroke-width:1.09375"/></g><g id="link_less_why"><path id="less-to-why" fill="none" d="M250,689.1328 C250,718.1516 250,773.9509 250,807.3033" style="stroke:#181818;stroke-width:1.09375"/><polygon fill="#181818" points="250 815.269 256.25 801.207 250 807.457 243.75 801.207 250 815.269" style="stroke:#181818;stroke-width:1.09375"/></g></g></svg>